<svg xmlns="http://www.w3.org/2000/svg" viewBox="0 0 439.99 169.6"><defs><style>.cls-1{fill:#ededed;}.cls-2{fill:none;}</style></defs><title>logo</title><g id="Layer_2" data-name="Layer 2"><g id="Layer_1-2" data-name="Layer 1"><path class="cls-1" d="M184,79.68h0a5.59,5.59,0,0,1-2-4.17c0-.25,0-.3,0-.55l-.17-14.35v-.5a2.1,2.1,0,0,0-.09-.42,4.62,4.62,0,0,0-1.05-2.26c-2.22-2.79-7.25-4.06-10.58-4.24a22.67,22.67,0,0,0-4.6.24c-4.39.65-7.82,2.22-11.67.64-.59-.25-1.37-.63-1.37-.63s0,.68-.07,1.2c-.06,2.36,1.64,6.23,4.45,6.66a5.67,5.67,0,0,0,3.91-1c2-1.54,3.12-3.73,5-4.52A4.7,4.7,0,0,1,171,57a5.51,5.51,0,0,1,.85,2.88,5.21,5.21,0,0,1,0,.55v3.94s-1.68-.07-2.93-.1c-5.23-.06-14.64,1.88-16.64,7.47-1.28,3.61.31,6.43,3.59,8h0l.2.09a16,16,0,0,0,12.13-.09h0a14.1,14.1,0,0,0,2.07-1.11c.63-.42,1.43-1,1.43-1a14,14,0,0,0,.72,1.61,2.6,2.6,0,0,0,.38.52h0c.09.12.19.21.3.33a2.67,2.67,0,0,0,.38.37.65.65,0,0,0,.49.16h11.09s-.58-.41-1-.74ZM171.9,74.26l-.1,2.1s-.88.31-1.55.51a7,7,0,0,1-6.58-1A4.4,4.4,0,0,1,162.36,71c.72-2.65,3.82-4.34,6.48-5.06,1.15-.32,3.06-.71,3.06-.71s.14,4.7,0,9.06"/><path class="cls-1" d="M67.45,50.05a5.9,5.9,0,0,0,5.24-2.11c2.18-3-.15-6.52-3.49-7.09-3-.51-6.29,1.12-6.58,4.27-.25,2.66,2.16,4.72,4.83,4.93"/><path class="cls-1" d="M72.84,75.83c-.16-2.06.08-23.24.08-23.24s-3.83.7-6,1.24a24.38,24.38,0,0,0-3.73,1.25c-2,.86-5.33,2.6-5.33,2.6s1.67.37,2.55.67a3.26,3.26,0,0,1,2,1.57,4.62,4.62,0,0,1,.23,1.44c.09,1.54.06,7.9,0,11.94,0,1.89.07,4.48-1.19,5.36a3.09,3.09,0,0,1-1.44.61,6.31,6.31,0,0,1-.65,0v1.1H75.47v-1s-.52-.07-.87-.15c-1.41-.35-1.66-1.79-1.76-3.35"/><path class="cls-1" d="M57.44,38.49c-3.11.14-7.15-.06-10.37,0-8.34.17-16,1.41-21.13,6.81-2.58,2.71-4.31,7.46-1.32,10.62,2.05,2.18,6.19,2.63,9.07,2.49a10.73,10.73,0,0,0,5.93-1.87c.45-.31,1.07-.78,1.07-.78s-1.23-.18-2.08-.38c-3.38-.77-5.17-3.23-4.92-6.3.29-3.55,2.73-6,6.57-7a20.7,20.7,0,0,1,3-.52l.55,0h3.89a1.93,1.93,0,0,1,0,.44c0,.2-.35.56-.59.81a8.58,8.58,0,0,0-1.09,2.73,62.28,62.28,0,0,0-.6,8.81c0,1.07.34,17.17-.45,22.32a21.09,21.09,0,0,1-.68,3c-1,3.24-2.92,6.13-6.62,6.91-2.94.63-6.39,0-7.79-2.45a6.36,6.36,0,0,1-.43-4.46,5.63,5.63,0,0,1,1.25-2.34,8.07,8.07,0,0,1,3.32-2.12,4.29,4.29,0,0,0,1.42-.41l.05-.16s-1.67-.59-2.74-.84a21.21,21.21,0,0,0-9.85.84c-2.55,1.06-4.4,2.79-5,5,0,0-.12.6-.13.78-.44,3.81,1.83,6.53,5.79,7.92A26.87,26.87,0,0,0,32,89.74l4,.05v.08s2.8-.22,4.56-.45c5.68-.77,10.37-3.27,13.41-7.61a11.86,11.86,0,0,0,1.2-2.13c1.68-3.64,2.13-8.21,2.35-12,.1-1.73.16-12.7.09-15.75,0-1.67.07-5.23.19-5.94.4-2.6,1.55-5.57,4.64-6.24.48-.1,1.19-.21,1.19-.21V38.08s-3.43.28-6.16.41"/><path class="cls-1" d="M141.4,53.06a30.74,30.74,0,0,0-3.12-.56.52.52,0,0,0-.51.09l-9.59,5.94v-5.8s-3,.24-4.84.5c-3.55.52-4.75,1.24-7.79,2.64a10.47,10.47,0,0,0-2.23,1.35v.16c0,.07,0,.08.27.13,2.08.37,4.29.81,4.8,2.87a12,12,0,0,1,.21,1.53,3.51,3.51,0,0,1,0,.56l-.17,13.24c0,.25,0,.3,0,.55a3.41,3.41,0,0,1-1.08,2.5,4.35,4.35,0,0,1-1.81.6c-.28,0-.65,0-.65,0v1.1h16.42v-1a11.36,11.36,0,0,1-1.38-.3c-1-.29-1.38-1.1-1.6-2.16a5.18,5.18,0,0,1-.11-.79,5,5,0,0,1,0-.55V60.07s2-.57,3.24-.89a5.76,5.76,0,0,1,3.69,0c3.77,1.05,5.83,4.34,5.57,8.33a17.75,17.75,0,0,1-1.61,6c-.62,1.37-2.17,4-3.13,6.13a12,12,0,0,0-.69,1.89,7.53,7.53,0,0,0-.09,3.41l.05.19c0,.08.08.08.32.08H138c.25,0,.28,0,.35,0,.27-.2.36-.73.49-1a7,7,0,0,1,1.51-1.84c.94-.9,2-1.74,3.05-2.63l.59-.5a44,44,0,0,0,3.33-3.6,16.29,16.29,0,0,0,2.92-13.91,12.38,12.38,0,0,0-8.8-8.61"/><path class="cls-1" d="M104.45,53a23.36,23.36,0,0,0-2.84-.56,1.78,1.78,0,0,0-.46,0,.82.82,0,0,0-.46.17l-9.45,5.84s0-.42,0-.62a1.3,1.3,0,0,1,0-.23,48.18,48.18,0,0,0,0-4.86s-1.22,0-2.22.09a27,27,0,0,0-11.37,3.46c-.71.43-1.59,1-1.59,1l.32.17a8.19,8.19,0,0,0,1.73.33,5,5,0,0,1,2.6,1.28,4,4,0,0,1,.73,1.73,3.31,3.31,0,0,1,0,.55l-.1,14.26c0,.25,0,.31,0,.55a3.24,3.24,0,0,1-1.18,2.59,3.47,3.47,0,0,1-1.51.51c-.37,0-.94,0-.94,0v1.1l16.5.09V79.33s-.62-.07-1-.15a2.45,2.45,0,0,1-1.87-1.94,13.08,13.08,0,0,1-.21-2,5.06,5.06,0,0,1,0-.55V60.08s1.64-.56,2.73-.86a7.39,7.39,0,0,1,8.21,2.63c3.09,3.9,1.21,9.62-1.18,14.09-.7,1.31-1.43,2.52-2,3.74h0a8,8,0,0,0-.79,5.21l.06.2c0,.06.08.08.33.08h2.79s.37-.88.65-1.39c.67-1.2,3.17-3.14,4.31-4.09h0a2.91,2.91,0,0,0,.39-.32c5-4.53,8.06-10.22,6.7-17A12.3,12.3,0,0,0,104.45,53"/><path class="cls-1" d="M185.11,45.15c2.68.45,4.41.93,4.89,3.35a17.57,17.57,0,0,1,.2,1.87,3.38,3.38,0,0,1,0,.55L190,75.38a3.38,3.38,0,0,1,0,.55c-.16,1.88-.52,2.65-1.8,3.2a3.81,3.81,0,0,1-1.27.33c-.33,0-.73,0-.73,0v1.1l17,.1v-1s-1-.19-1.51-.34c-1.35-.41-1.71-1.93-1.76-3.56,0-.25,0-.3,0-.55v-15s1.17-.32,2-.5c3.59-.79,7.68.45,9.49,3.55a10.06,10.06,0,0,1,.14,9c-.47,1-1.6,2.9-2.48,4.43-.58,1-1.14,2-1.59,3h0a10.27,10.27,0,0,0-1.35,4.9c0,.18.07.59.25.59h4c.11,0,.24-.33.3-.4.7-.87,3.16-3.07,5.2-5.09.51-.5,1-1,1.4-1.42,4.53-4.87,6.77-11.3,4.33-17.14-2.13-5.09-5.93-7-11.8-8.13a.5.5,0,0,0-.51.09l-9.34,5.18.08-17.7s-3.37.33-5.19.6a29.54,29.54,0,0,0-7.57,2.31,13.7,13.7,0,0,0-2.37,1.39V45c0,.07,0,.08.27.11"/><polyline class="cls-1" points="50.03 92.92 425.24 92.92 425.24 92.07 54.28 92.07"/><path class="cls-1" d="M259.76,68.61a7.1,7.1,0,0,1,1.41,4.53,6.5,6.5,0,0,1-2.76,5.63c-1.84,1.32-4.51,2-8,2H236.94V52.57h12.64q4.83,0,7.46,1.94a6.25,6.25,0,0,1,2.64,5.35,6.91,6.91,0,0,1-1,3.82,6.74,6.74,0,0,1-2.75,2.46A7.21,7.21,0,0,1,259.76,68.61ZM241,55.83v9h8.25A8.37,8.37,0,0,0,254,63.7,4.23,4.23,0,0,0,254,57a8.45,8.45,0,0,0-4.77-1.15Zm14.4,20.53a3.9,3.9,0,0,0,1.73-3.54q0-4.71-6.88-4.71H241v9.37h9.25A9.53,9.53,0,0,0,255.37,76.36Z"/><path class="cls-1" d="M275.45,52.57h4V80.74h-4Z"/><path class="cls-1" d="M298.05,80.08a12.64,12.64,0,0,1-4.65-2.56l1.49-3.13A12.32,12.32,0,0,0,299,76.74a15.22,15.22,0,0,0,5.17.91,9.32,9.32,0,0,0,5.23-1.19,3.67,3.67,0,0,0,1.73-3.16,3.13,3.13,0,0,0-.95-2.36,6.28,6.28,0,0,0-2.33-1.38A39.78,39.78,0,0,0,304,68.47a40.31,40.31,0,0,1-5.13-1.53,8.44,8.44,0,0,1-3.34-2.35,6.27,6.27,0,0,1-1.39-4.29,7.23,7.23,0,0,1,1.18-4.06,8.18,8.18,0,0,1,3.61-2.9,14.48,14.48,0,0,1,6-1.09,18.92,18.92,0,0,1,4.91.65,13.05,13.05,0,0,1,4.15,1.85L312.6,58a14.64,14.64,0,0,0-3.78-1.71,14.17,14.17,0,0,0-3.95-.59,8.7,8.7,0,0,0-5.13,1.25A3.83,3.83,0,0,0,298,60.14a3,3,0,0,0,1,2.35,6.51,6.51,0,0,0,2.39,1.41A37.41,37.41,0,0,0,305.27,65a39.6,39.6,0,0,1,5.12,1.53,8.76,8.76,0,0,1,3.32,2.33,6.19,6.19,0,0,1,1.38,4.23,7.22,7.22,0,0,1-1.2,4,8.15,8.15,0,0,1-3.66,2.9,15.18,15.18,0,0,1-6,1.07A19.21,19.21,0,0,1,298.05,80.08Z"/><path class="cls-1" d="M334.21,56.08h-9.66V52.57h23.3v3.51h-9.66V80.74h-4Z"/><path class="cls-1" d="M379.12,80.74,373,72.09c-.75.06-1.34.08-1.77.08h-7v8.57h-4V52.57h11c3.65,0,6.52.88,8.62,2.62a8.86,8.86,0,0,1,3.13,7.2A9.38,9.38,0,0,1,381.41,68a9.09,9.09,0,0,1-4.58,3.34l6.68,9.45ZM377,67.1a5.75,5.75,0,0,0,2-4.71,5.69,5.69,0,0,0-2-4.69,9.13,9.13,0,0,0-5.84-1.62h-6.84V68.75h6.84A9,9,0,0,0,377,67.1Z"/><path class="cls-1" d="M402.62,79.2A13.86,13.86,0,0,1,397.25,74a14.88,14.88,0,0,1,0-14.73,13.9,13.9,0,0,1,5.37-5.17,16.64,16.64,0,0,1,15.33,0,13.83,13.83,0,0,1,5.36,5.15,15.09,15.09,0,0,1,0,14.77A13.78,13.78,0,0,1,418,79.2a16.64,16.64,0,0,1-15.33,0Zm13.26-3.12a10.43,10.43,0,0,0,3.91-3.89,11.48,11.48,0,0,0,0-11.06,10.43,10.43,0,0,0-3.91-3.89,11.06,11.06,0,0,0-5.57-1.41,11.3,11.3,0,0,0-5.62,1.41,10.3,10.3,0,0,0-3.94,3.89,11.41,11.41,0,0,0,0,11.06,10.3,10.3,0,0,0,3.94,3.89,11.29,11.29,0,0,0,5.62,1.4A11.05,11.05,0,0,0,415.88,76.08Z"/><path class="cls-1" d="M122.47,130.71a8.06,8.06,0,0,1-3.26-2.26l.44-.41a8.13,8.13,0,0,0,3.08,2.1A10.8,10.8,0,0,0,127,131a8.33,8.33,0,0,0,5.21-1.38,4.3,4.3,0,0,0,1.75-3.56,3.89,3.89,0,0,0-.91-2.72,5.76,5.76,0,0,0-2.27-1.52,30.44,30.44,0,0,0-3.62-1,32.48,32.48,0,0,1-3.87-1.15,6.09,6.09,0,0,1-2.42-1.71,4.59,4.59,0,0,1-1-3.09,5.18,5.18,0,0,1,.8-2.79,5.38,5.38,0,0,1,2.47-2,9.94,9.94,0,0,1,4.14-.76,11.22,11.22,0,0,1,3.49.55,10.12,10.12,0,0,1,2.94,1.47l-.35.51a9.78,9.78,0,0,0-2.89-1.44,10.64,10.64,0,0,0-3.15-.49,7.89,7.89,0,0,0-5.07,1.41,4.43,4.43,0,0,0-1.74,3.59,3.92,3.92,0,0,0,.92,2.74,5.59,5.59,0,0,0,2.28,1.54,36.61,36.61,0,0,0,3.67,1.07,35.08,35.08,0,0,1,3.83,1.16,6.11,6.11,0,0,1,2.41,1.68,4.44,4.44,0,0,1,1,3,5,5,0,0,1-.83,2.79,5.54,5.54,0,0,1-2.51,2,10.65,10.65,0,0,1-4.23.74A11.86,11.86,0,0,1,122.47,130.71Z"/><path class="cls-1" d="M162,124.81H148.44l-3.11,6.68h-.72l10.29-22.17h.63l10.29,22.17h-.73Zm-.29-.61-6.49-14-6.49,14Z"/><path class="cls-1" d="M178.23,109.32h.63v21.57h13.21v.6H178.23Z"/><path class="cls-1" d="M206.6,109.93h-8.23v-.61h17.1v.61h-8.24v21.56h-.63Z"/><path class="cls-1" d="M240.07,124.81H226.52l-3.11,6.68h-.72L233,109.32h.63l10.29,22.17h-.73Zm-.29-.61-6.49-14-6.49,14Z"/><path class="cls-1" d="M256.31,109.32H257v22.17h-.64Z"/><path class="cls-1" d="M289,131.49l-5.63-7.82a14.1,14.1,0,0,1-2.6.22h-6.87v7.6h-.64V109.32h7.51a9.71,9.71,0,0,1,6.39,1.92,6.57,6.57,0,0,1,2.32,5.37,6.89,6.89,0,0,1-1.43,4.44,7.2,7.2,0,0,1-4,2.46l5.76,8Zm-8.17-8.2a9,9,0,0,0,5.94-1.74,6.93,6.93,0,0,0,0-9.88,9,9,0,0,0-5.94-1.74h-6.93v13.36Z"/><path class="cls-1" d="M318.63,130.89v.6H303.87V109.32h14.28v.61H304.5v10h12.23v.6H304.5v10.36Z"/><rect class="cls-2" width="439.99" height="169.6"/></g></g></svg>