<?xml version="1.0" encoding="utf-8"?>
<!-- Generator: Adobe Illustrator 21.0.0, SVG Export Plug-In . SVG Version: 6.00 Build 0)  -->
<svg version="1.1" id="Layer_1" xmlns="http://www.w3.org/2000/svg" xmlns:xlink="http://www.w3.org/1999/xlink" x="0px" y="0px"
	 viewBox="0 0 120.5 29.9" style="enable-background:new 0 0 120.5 29.9;" xml:space="preserve">
<style type="text/css">
	.st0{fill:#4A4A49;}
	.st1{enable-background:new    ;}
</style>
<title>logo_grey</title>
<g id="Layer_2">
	<g id="Layer_1-2">
		<g>
			<path class="st0" d="M49.7,12.4L49.7,12.4c-0.4-0.3-0.6-0.8-0.6-1.2c0-0.1,0-0.1,0-0.2L49,6.7V6.6c0,0,0-0.1,0-0.1
				c0-0.2-0.1-0.5-0.3-0.7c-0.9-0.8-2-1.3-3.2-1.3c-0.5,0-0.9,0-1.4,0.1c-1.3,0.2-2.3,0.7-3.5,0.2l-0.4-0.2c0,0,0,0.2,0,0.4
				c0,0.7,0.5,1.9,1.3,2C42,7,42.4,6.9,42.8,6.7c0.6-0.5,0.9-1.1,1.5-1.3c0.5-0.2,1.2-0.1,1.6,0.3c0.2,0.3,0.2,0.6,0.2,0.9
				c0,0.1,0,0.1,0,0.2v1.2h-0.9c-1.6,0-4.4,0.6-5,2.2c-0.4,0.9,0.1,2,1,2.3c0,0,0.1,0,0.1,0l0,0h0.1c1.2,0.5,2.5,0.5,3.6,0l0,0
				c0.2-0.1,0.4-0.2,0.6-0.3l0.4-0.3c0.1,0.2,0.1,0.3,0.2,0.5c0,0.1,0.1,0.1,0.1,0.1l0,0l0.1,0.1c0,0,0.1,0.1,0.1,0.1
				c0,0,0.1,0,0.2,0H50L49.7,12.4L49.7,12.4z M46.1,10.8c0,0.3,0,0.6,0,0.6l-0.5,0.1c-0.7,0.2-1.4,0.1-2-0.3
				c-0.4-0.4-0.6-0.9-0.4-1.4c0.4-0.8,1.1-1.4,1.9-1.5c0.3-0.1,0.9-0.2,0.9-0.2S46.1,9.5,46.1,10.8"/>
		</g>
		<g>
			<path class="st0" d="M14.9,3.6c0.6,0.1,1.2-0.2,1.6-0.6c0.4-0.6,0.2-1.5-0.4-1.9c-0.2-0.1-0.4-0.2-0.6-0.2
				c-0.9-0.2-1.7,0.3-2,1.1c0,0,0,0.1,0,0.1C13.4,2.9,14.1,3.6,14.9,3.6C14.9,3.6,14.9,3.6,14.9,3.6"/>
		</g>
		<g>
			<path class="st0" d="M16.5,11.3c0-0.6,0-6.9,0-6.9s-1.1,0.2-1.8,0.4c-0.4,0.1-0.8,0.2-1.1,0.4c-0.6,0.3-1.6,0.8-1.6,0.8
				s0.5,0.1,0.8,0.2c0.3,0.1,0.5,0.2,0.6,0.5c0,0.1,0.1,0.3,0.1,0.4c0,0.5,0,2.4,0,3.6c0,0.6,0,1.3-0.4,1.6
				c-0.1,0.1-0.3,0.2-0.4,0.2h-0.2v0.3h4.8v-0.3H17C16.5,12.2,16.5,11.8,16.5,11.3"/>
		</g>
		<g>
			<path class="st0" d="M11.9,0.1c-0.9,0-2.1,0-3.1,0C6.3,0.2,4,0.6,2.4,2.2C1.7,3,1.1,4.4,2,5.3c0.8,0.6,1.7,0.9,2.7,0.7
				c0.6,0,1.2-0.2,1.8-0.6l0.3-0.2c0,0-0.4-0.1-0.6-0.1C5.3,5,4.7,4.2,4.8,3.3c0.1-1.1,0.9-1.9,2-2.1C7,1.1,7.3,1,7.6,1H9
				c0,0,0,0.1,0,0.1c0,0.1-0.1,0.2-0.2,0.2C8.7,1.6,8.6,1.9,8.5,2.2C8.4,3.1,8.3,3.9,8.3,4.8c0,0.3,0.1,5.1-0.1,6.7
				c0,0.3-0.1,0.6-0.2,0.9c-0.2,1-1,1.8-2,2.1c-0.9,0.3-1.8,0-2.3-0.7c-0.2-0.4-0.2-0.9-0.1-1.3c0.1-0.3,0.2-0.5,0.4-0.7
				c0.3-0.3,0.6-0.5,1-0.6c0.1,0,0.3,0,0.4-0.1l0,0c0,0-0.5-0.2-0.8-0.2c-1-0.1-2-0.1-2.9,0.2c-0.7,0.2-1.2,0.8-1.5,1.4
				c0,0,0,0.2,0,0.2C0,13.8,0.7,14.8,1.8,15c0.8,0.3,1.6,0.4,2.5,0.4h1.2l0,0c0,0,0.8-0.1,1.4-0.1c1.6-0.2,3.1-1,4-2.3
				c0.1-0.2,0.3-0.4,0.4-0.6c0.4-1.1,0.7-2.4,0.7-3.6c0-0.5,0-3.8,0-4.7c0-0.5,0-1.6,0.1-1.8c0.1-0.8,0.6-1.6,1.4-1.8l0.3-0.1V0
				C13.7,0,12.7,0.1,11.9,0.1"/>
		</g>
		<g>
			<path class="st0" d="M37,4.5c-0.3-0.1-0.7-0.1-1-0.2c0,0-0.1,0-0.2,0L33,6.1V4.4c0,0-0.9,0.1-1.5,0.2c-0.8,0.1-1.6,0.4-2.3,0.8
				c-0.2,0.1-0.5,0.2-0.7,0.4l0,0c0,0,0,0,0.1,0c0.6,0.1,1.3,0.2,1.4,0.9c0,0.2,0.1,0.3,0.1,0.5c0,0.1,0,0.1,0,0.2l0,4
				c0,0.1,0,0.1,0,0.2c0,0.3-0.1,0.6-0.3,0.8c-0.2,0.1-0.3,0.2-0.5,0.2H29v0.3h4.9v-0.3c-0.1,0-0.3-0.1-0.4-0.1
				c-0.3-0.1-0.4-0.3-0.5-0.6c0-0.1,0-0.2,0-0.2c0-0.1,0-0.1,0-0.2V6.6l1-0.3c0.4-0.1,0.7-0.1,1.1,0c1.1,0.3,1.8,1.4,1.7,2.5
				c-0.1,0.6-0.2,1.2-0.5,1.8c-0.2,0.4-0.7,1.2-0.9,1.8c-0.1,0.2-0.2,0.4-0.2,0.6c-0.1,0.3-0.1,0.7,0,1V14c0,0,0,0,0.1,0H36
				c0.1,0,0.1,0,0.1,0s0.1-0.2,0.2-0.3c0.1-0.2,0.3-0.4,0.5-0.6c0.3-0.3,0.6-0.5,0.9-0.8l0.2-0.1c0.4-0.3,0.7-0.7,1-1.1
				C39.7,10,40,8.5,39.6,7C39.3,5.8,38.3,4.8,37,4.5"/>
		</g>
		<g>
			<path class="st0" d="M25.9,4.5c-0.3-0.1-0.6-0.1-0.9-0.2h-0.1c-0.1,0-0.1,0-0.1,0.1L22,6.1c0,0,0-0.1,0-0.2c0,0,0,0,0-0.1
				c0-0.5,0-1,0-1.4h-0.7c-1.2,0.1-2.4,0.4-3.4,1l-0.5,0.3l0.1,0.1c0.2,0.1,0.3,0.1,0.5,0.1c0.3,0,0.6,0.2,0.8,0.4
				C19,6.4,19,6.6,19,6.8c0,0.1,0,0.1,0,0.2v4.3c0,0.1,0,0.1,0,0.2c0,0.3-0.1,0.6-0.4,0.8c-0.1,0.1-0.3,0.1-0.5,0.1h-0.3v0.3h4.9
				v-0.3h-0.3C22.3,12.3,22,12,22,11.8c0-0.2-0.1-0.4-0.1-0.6c0-0.1,0-0.1,0-0.2V6.6c0,0,0.5-0.2,0.8-0.3c0.9-0.3,1.9,0,2.5,0.8
				c0.9,1.2,0.4,2.9-0.4,4.2c-0.2,0.4-0.4,0.8-0.6,1.1l0,0c-0.3,0.5-0.3,1-0.2,1.6v0.1c0,0,0,0,0.1,0H25c0,0,0.1-0.3,0.2-0.4
				c0.4-0.5,0.8-0.9,1.3-1.2l0,0l0.1-0.1c1.5-1.2,2.3-3.1,2-5.1C28.3,5.9,27.3,4.8,25.9,4.5"/>
		</g>
		<g>
			<path class="st0" d="M50,2.1c0.8,0.1,1.3,0.3,1.5,1c0,0.2,0.1,0.4,0.1,0.6c0,0.1,0,0.1,0,0.2l-0.1,7.3c0,0.1,0,0.1,0,0.2
				c0,0.6-0.2,0.8-0.5,1c-0.1,0.1-0.2,0.1-0.4,0.1h-0.2v0.3h5.1v-0.3c0,0-0.3-0.1-0.5-0.1c-0.4-0.1-0.5-0.6-0.5-1.1
				c0-0.1,0-0.1,0-0.2V6.6L55,6.5c1.1-0.3,2.2,0.1,2.8,1.1c0.4,0.8,0.4,1.9,0,2.7c-0.1,0.3-0.5,0.9-0.7,1.3s-0.3,0.6-0.5,0.9l0,0
				c-0.3,0.4-0.4,0.9-0.4,1.5c0,0.1,0,0.2,0.1,0.2h1.2c0,0,0.1-0.1,0.1-0.1c0.2-0.3,0.9-0.9,1.5-1.5l0.4-0.4
				c1.4-1.3,1.9-3.3,1.3-5.1c-0.6-1.5-1.8-2.1-3.5-2.4c0,0-0.1,0-0.2,0L54.5,6V0.7c0,0-1,0.1-1.5,0.2c-0.8,0.1-1.5,0.4-2.3,0.7
				C50.4,1.7,50.2,1.8,50,2V2.1C50,2,50,2,50,2.1"/>
		</g>
		<g>
			<polyline class="st0" points="9.6,16.4 120.5,16.4 120.5,16.1 10.9,16.1 			"/>
		</g>
		<g>
			<path class="st0" d="M69.1,4.3c1.7,0,2.7,0.8,2.7,2.1c0,0.9-0.6,1.8-1.6,1.9c1.1,0.1,2,1,1.9,2.1c0,1.4-1.1,2.3-3,2.3h-3.6V4.3
				H69.1z M66.5,8H69c1.1,0,1.8-0.5,1.8-1.4S70.2,5.3,69,5.3h-2.5V8z M66.5,11.9H69c1.4,0,2.2-0.5,2.2-1.5S70.4,8.9,69,8.9h-2.5
				V11.9z"/>
		</g>
		<g>
			<path class="st0" d="M76.6,12.8V4.3h1v8.4H76.6z"/>
		</g>
		<g>
			<path class="st0" d="M87.7,5.1L87.2,6c-0.7-0.5-1.5-0.7-2.3-0.7c-1.1,0-1.8,0.4-1.8,1.1c0,2.2,4.7,1,4.7,4.1c0,1.4-1.2,2.3-3,2.3
				c-1.2,0-2.3-0.5-3.2-1.3l0.4-0.9c0.8,0.7,1.8,1.2,2.8,1.2c1.2,0,2-0.5,2-1.3c0-2.2-4.7-1-4.7-4.1c0-1.3,1.2-2.2,2.9-2.2
				C86,4.3,86.9,4.6,87.7,5.1z"/>
		</g>
		<g>
			<path class="st0" d="M94.8,5.3v7.5h-1V5.3h-2.7V4.3h6.5v0.9L94.8,5.3z"/>
		</g>
		<g>
			<path class="st0" d="M105.1,10.1h-0.6h-2.2v2.7h-1V4.3h3.2c2.1,0,3.3,1,3.3,2.8c0.1,1.2-0.7,2.4-1.8,2.7l2,2.9h-1.1L105.1,10.1z
				 M104.6,9.2c1.5,0,2.4-0.7,2.4-2s-0.9-1.9-2.4-1.9h-2.2v3.9H104.6z"/>
		</g>
		<g>
			<path class="st0" d="M120.5,8.6c0,2.4-2,4.4-4.4,4.4c-2.4,0-4.4-2-4.4-4.4c0-2.4,2-4.4,4.4-4.4C118.5,4.1,120.5,6.1,120.5,8.6z
				 M112.7,8.6c0,1.9,1.5,3.4,3.4,3.4s3.4-1.5,3.4-3.4s-1.5-3.4-3.4-3.4S112.7,6.7,112.7,8.6z"/>
		</g>
		<g class="st1">
			<path class="st0" d="M34.4,21.8l-0.1,0.2c-0.4-0.3-1.1-0.4-1.7-0.4c-1.2,0-1.9,0.5-1.9,1.3c0,2.2,4,1.1,4,3.5
				c0,1-0.9,1.6-2.2,1.6c-0.8,0-1.7-0.4-2.3-0.9l0.1-0.1c0.5,0.5,1.3,0.9,2.1,0.9c1.2,0,2.1-0.6,2.1-1.4c0-2.3-4-1.1-4-3.5
				c0-0.9,0.8-1.5,2.1-1.5C33.3,21.3,33.9,21.5,34.4,21.8z"/>
		</g>
		<g class="st1">
			<path class="st0" d="M38.9,25.9l-0.9,2h-0.2l3-6.6H41l3.1,6.6h-0.2l-0.9-2H38.9z M40.9,21.5L39,25.7h3.8L40.9,21.5z"/>
			<path class="st0" d="M50.9,27.7v0.2h-3.2v-6.6h0.2v6.4H50.9z"/>
		</g>
		<g class="st1">
			<path class="st0" d="M56.1,21.5v6.4h-0.2v-6.4h-2.3v-0.2h4.7v0.2H56.1z"/>
		</g>
		<g class="st1">
			<path class="st0" d="M61.6,25.9l-0.9,2h-0.2l3-6.6h0.2l3.1,6.6h-0.2l-0.9-2H61.6z M63.6,21.5l-1.9,4.2h3.8L63.6,21.5z"/>
			<path class="st0" d="M70.4,27.9v-6.6h0.2v6.6H70.4z"/>
			<path class="st0" d="M78.4,25.6l1.7,2.3h-0.2l-1.7-2.3c-0.2,0-0.4,0-0.6,0h-2.1v2.3h-0.2v-6.6h2.2c1.6,0,2.5,0.8,2.5,2.2
				C80.2,24.6,79.5,25.3,78.4,25.6z M77.6,25.5c1.5,0,2.3-0.7,2.3-2c0-1.3-0.9-2-2.3-2h-2.1v4H77.6z"/>
			<path class="st0" d="M84.8,21.5v2.9h3.5v0.2h-3.5v3.1h4.1v0.2h-4.3v-6.6h4.1v0.2H84.8z"/>
		</g>
	</g>
</g>
</svg>
